<?xml version="1.0" encoding="utf-8"?>
<!-- Generator: Adobe Illustrator 15.0.2, SVG Export Plug-In . SVG Version: 6.00 Build 0)  -->
<!DOCTYPE svg PUBLIC "-//W3C//DTD SVG 1.1//EN" "http://www.w3.org/Graphics/SVG/1.1/DTD/svg11.dtd">
<svg version="1.1"
	 id="svg2" sodipodi:version="0.32" inkscape:version="0.45.1" sodipodi:docbase="C:\Users\symode09\Desktop" sodipodi:docname="drawing.svg" inkscape:output_extension="org.inkscape.output.svg.inkscape" xmlns:inkscape="http://www.inkscape.org/namespaces/inkscape" xmlns:sodipodi="http://sodipodi.sourceforge.net/DTD/sodipodi-0.dtd" xmlns:rdf="http://www.w3.org/1999/02/22-rdf-syntax-ns#" xmlns:svg="http://www.w3.org/2000/svg" xmlns:cc="http://web.resource.org/cc/" xmlns:dc="http://purl.org/dc/elements/1.1/"
	 xmlns="http://www.w3.org/2000/svg" xmlns:xlink="http://www.w3.org/1999/xlink" x="0px" y="0px" width="522.49px"
	 height="464.27px" viewBox="0 0 522.49 464.27" enable-background="new 0 0 522.49 464.27" xml:space="preserve">
<sodipodi:namedview  width="522.49px" height="464.27px" pagecolor="#ffffff" borderopacity="1.0" id="base" bordercolor="#666666" inkscape:window-x="23" gridtolerance="10000" guidetolerance="10" inkscape:cy="228.72115" objecttolerance="10" inkscape:pageopacity="0.0" inkscape:pageshadow="2" inkscape:zoom="0.7" inkscape:cx="375.29084" inkscape:document-units="px" inkscape:current-layer="layer1" inkscape:window-width="765" inkscape:window-height="575" inkscape:window-y="23">
	</sodipodi:namedview>
<g id="layer1" inkscape:label="Layer 1" inkscape:groupmode="layer">
	<path id="path2221" fill="#33B5E5" d="M177.515,451.2c-2.31-4.58-5.254-20.884-6.802-37.664
		c-1.516-16.441-2.061-30.642-2.409-62.862c-0.295-27.237-0.79-47.291-1.179-47.697c-0.079-0.083-1.714-0.242-3.633-0.354
		c-1.92-0.111-4.66-0.291-6.091-0.4c-1.43-0.107-3.859-0.285-5.399-0.393c-4.316-0.305-16.484-1.188-19.5-1.416
		c-2.981-0.226-38.534-3.094-43.301-3.494c-1.649-0.139-7.814-0.717-13.699-1.284c-5.886-0.568-11.69-1.12-12.9-1.228
		c-5.61-0.496-13.975-1.358-14.309-1.475c-0.16-0.057-1.281-0.198-2.491-0.314c-3.016-0.291-7.988-0.914-10.4-1.306
		c-1.1-0.179-2.899-0.449-4-0.603c-5.506-0.77-9.127-1.605-10.175-2.354l-0.583-0.416l0.436-0.353
		c0.777-0.63,3.265-0.984,10.423-1.485c14.654-1.025,50.726-1.342,93.3-0.818c14.74,0.181,27.07,0.369,27.399,0.417
		c0.33,0.048,3.66,0.109,7.4,0.136l6.8,0.047l-0.059-1.59c-0.107-2.932-1.824-35.196-3.13-58.847
		c-0.711-12.883-1.53-28.108-1.819-33.833c-0.289-5.726-0.555-10.511-0.592-10.633c-0.048-0.161-9.854-0.227-35.933-0.24
		c-41.971-0.021-44.8-0.055-70.567-0.843c-9.813-0.3-17.959-0.805-22.8-1.414c-6.581-0.828-8.973-1.445-10.182-2.629
		c-0.828-0.81-0.769-1.38,0.332-3.18c1.514-2.476,1.519-3.174,0.041-5.729c-0.443-0.767-0.86-1.724-0.926-2.127
		c-0.107-0.668-0.041-0.809,0.758-1.597c1.423-1.404,4.607-2.312,11.067-3.157c2.977-0.389,4.009-0.482,11.809-1.067
		c12.068-0.905,35.565-1.508,65.494-1.681l23.894-0.137l-8.563-7.307c-4.71-4.019-8.654-7.341-8.767-7.382s-0.261,0.01-0.33,0.114
		c-0.253,0.375-4.04,2.625-6.259,3.718c-5.128,2.525-12.549,4.552-20.669,5.643c-5.313,0.714-15.164,0.88-18.399,0.309
		c-2.332-0.411-5.743-1.343-7.03-1.92c-0.347-0.155-0.691-0.282-0.766-0.282s-1.141-0.505-2.37-1.122
		c-10.577-5.312-17.543-16.171-19.237-29.991c-0.368-3.006-0.418-9.438-0.097-12.43c0.885-8.221,3.344-16.128,7.213-23.188
		c0.775-1.414,1.382-2.649,1.348-2.745c-0.033-0.095-1.868-2.047-4.077-4.337c-2.209-2.29-4.504-4.713-5.1-5.384
		c-0.597-0.671-2.032-2.248-3.191-3.503s-2.733-3.003-3.5-3.882c-0.766-0.879-1.482-1.7-1.593-1.824
		C26.067,54.54,18.653,44.59,14.666,37.861c-2.267-3.824-2.716-4.642-4.343-7.892c-3.765-7.52-6.037-14.955-6.037-19.751
		c0-3.6,0.714-4.173,3.44-2.761c1.841,0.954,2.921,1.083,3.812,0.454c0.365-0.258,0.843-0.697,1.062-0.975
		c0.218-0.278,0.793-0.934,1.277-1.457c0.785-0.849,0.973-0.951,1.734-0.951c0.76,0,0.977,0.117,1.945,1.051
		c0.721,0.695,1.651,2,2.749,3.854c4.114,6.949,7.069,11.465,10.561,16.143c3.805,5.097,5.057,6.641,11.311,13.95
		c3.297,3.854,16.512,17.519,21.376,22.104c2.543,2.397,2.552,2.403,3.05,2.077c0.973-0.638,4.322-2.321,6.049-3.039
		c2.865-1.192,5.703-2.035,8.352-2.481c0.55-0.093,1.449-0.276,2-0.408c1.549-0.37,9.343-0.312,11.8,0.089
		c5.672,0.924,11.35,3.102,14.18,5.439c1.476,1.218,1.971,2.005,1.956,3.107c-0.013,0.94-0.222,1.345-1.537,2.979
		c-1.425,1.77-1.63,2.234-1.992,4.525c-0.188,1.183-0.515,2.374-0.812,2.955l-0.498,0.974l1.557,1.629
		c6.553,6.858,11.611,13.923,15.071,21.049c3.196,6.582,5.176,13.932,5.176,19.212v1.475l4.851,4.159
		c2.667,2.288,4.895,4.212,4.949,4.276c0.104,0.121,3.915,3.418,4.801,4.154c0.274,0.229,4.139,3.576,8.587,7.439
		c4.447,3.864,8.117,6.995,8.153,6.958c0.037-0.037-0.023-2.129-0.135-4.651s-0.382-9.629-0.601-15.795
		c-1.612-45.481-1.612-69.143,0.002-78.698c0.851-5.036,2.009-6.273,4.727-5.051c1.599,0.719,2.337,0.96,2.943,0.964
		c0.764,0.003,2.101-0.39,2.723-0.801c0.811-0.536,2.156-0.998,2.909-0.998c1.118,0,2.272,1.299,3.035,3.415
		c3.687,10.232,6.005,40.729,8.306,109.297l0.05,1.501l32.101,0.437c40.147,0.547,66.866,0.983,76.7,1.253
		c18.426,0.504,28.154,0.647,28.298,0.415c0.078-0.126,0.202-1.597,0.277-3.269c0.733-16.48,3.728-58.448,5.529-77.515
		c1.334-14.122,2.773-22.62,3.904-23.054c0.493-0.189,0.868,0.311,1.277,1.706c1.726,5.883,3.1,23.045,4.105,51.278
		c0.505,14.185,1.105,39.772,1.107,47.181c0,2.11,0.056,3.98,0.122,4.154c0.105,0.274,0.674,0.317,4.25,0.322
		c2.271,0.003,8.449,0.139,13.729,0.301c5.28,0.162,13.11,0.385,17.4,0.494s13.38,0.384,20.2,0.609
		c24.111,0.799,32.019,0.946,31.799,0.591c-0.068-0.11-0.681-0.579-1.361-1.041c-0.681-0.462-1.328-0.916-1.438-1.008
		c-0.11-0.092-1.064-0.817-2.12-1.611c-2.609-1.961-5.259-3.999-5.38-4.137c-0.056-0.062-1.45-1.186-3.101-2.496
		c-1.649-1.311-3.146-2.526-3.325-2.701c-0.179-0.175-0.494-0.458-0.7-0.629s-2.174-1.87-4.374-3.775
		c-2.2-1.905-4.107-3.507-4.238-3.56s-2.111,0.956-4.4,2.24c-4.417,2.48-13.644,7.107-14.172,7.107
		c-0.063,0-0.581,0.218-1.152,0.484c-0.57,0.267-1.803,0.769-2.737,1.116c-0.935,0.347-1.88,0.708-2.1,0.804
		c-0.221,0.095-1.256,0.44-2.301,0.768c-9.315,2.918-18.002,3.174-20.449,0.603c-0.303-0.317-0.551-0.705-0.551-0.859
		c0-0.734,1.777-2.136,4.795-3.78c4.924-2.684,14.238-9.063,20.256-13.872c0.742-0.593,2.002-1.597,2.8-2.229
		c0.797-0.633,1.495-1.202,1.55-1.264s1.206-0.999,2.558-2.08s2.432-2.034,2.399-2.117c-0.031-0.083-1.533-1.714-3.338-3.626
		c-1.805-1.912-4.289-4.647-5.52-6.079c-2.577-2.997-8.256-10.113-9.961-12.48c-1.475-2.049-6.14-9.044-6.296-9.442
		c-0.065-0.165-0.402-0.75-0.749-1.301c-0.346-0.55-1.312-2.307-2.147-3.904c-5.402-10.337-7.499-19.848-4.974-22.57
		c0.778-0.839,1.44-1.052,4.231-1.362c1.922-0.213,2.88-0.428,4.011-0.898c4.875-2.029,6.142-1.901,8.885,0.897
		c1.715,1.749,2.631,3.125,7.803,11.721c4.8,7.978,8.709,13.937,13.857,21.121c1.814,2.533,3.586,5.01,3.937,5.506
		c0.518,0.731,6.22,8.364,6.4,8.566c0.051,0.057,5.216-4.403,5.604-4.838c0.109-0.124,0.83-0.765,1.6-1.425
		c0.771-0.66,1.49-1.299,1.601-1.419c0.109-0.121,1.774-1.558,3.699-3.193c1.926-1.635,3.636-3.113,3.801-3.285
		c0.165-0.172,0.84-0.76,1.5-1.309c0.659-0.548,1.244-1.05,1.3-1.115c0.154-0.184,6.791-5.666,9.7-8.012
		c10.028-8.091,17.861-13.151,22.745-14.694c1.426-0.451,2.021-0.538,3.25-0.476c1.412,0.071,1.55,0.12,2.211,0.783
		c0.471,0.471,1.002,1.424,1.597,2.863c0.951,2.305,1.135,2.609,2.972,4.931c1.638,2.069,1.986,2.919,1.892,4.604
		c-0.123,2.18-1.384,4.003-5.694,8.236c-1.305,1.282-3.407,3.215-4.672,4.296c-1.266,1.082-2.345,2.023-2.4,2.093
		c-0.055,0.069-1.27,1.062-2.7,2.206c-1.43,1.144-2.779,2.231-3,2.417c-0.62,0.522-4.475,3.579-5.7,4.52
		c-0.604,0.464-1.369,1.084-1.699,1.378c-0.33,0.294-1.455,1.171-2.5,1.948s-1.945,1.471-2,1.542c-0.056,0.07-1.271,0.995-2.7,2.054
		s-2.69,2.001-2.8,2.093c-0.301,0.252-4.328,3.187-6.601,4.809c-1.1,0.786-2.098,1.513-2.217,1.616s-1.425,1.013-2.9,2.022
		c-1.476,1.01-2.71,1.913-2.744,2.008c-0.064,0.183,0.331,0.726,2.775,3.81c0.828,1.046,2.361,3.028,3.407,4.404
		c1.045,1.376,2.622,3.449,3.503,4.605c4.855,6.365,9.742,13.411,11.821,17.044l0.959,1.674l9.498,0.142
		c5.224,0.078,12.018,0.241,15.098,0.363c5.85,0.231,17.718,1.047,20.3,1.396c0.825,0.111,2.445,0.293,3.601,0.405
		c3.387,0.327,12.633,1.901,15.8,2.69c2.408,0.6,7.103,1.973,7.95,2.325c0.247,0.103,0.652,0.269,0.899,0.369
		c3.15,1.271,5.351,2.555,5.351,3.123c0,0.147-0.281,0.329-0.624,0.404c-0.758,0.167-5.07-0.03-9.676-0.442
		c-2.29-0.205-6.997-0.337-14.41-0.407c-13.369-0.125-20.296,0.133-42.19,1.572c-8.359,0.549-16.595,1.081-18.3,1.181
		s-4.27,0.282-5.7,0.403c-6.534,0.555-32.15,1.372-71.7,2.285c-8.085,0.187-14.82,0.378-14.967,0.424
		c-0.217,0.069-0.244,0.919-0.146,4.539c0.067,2.45,0.212,8.959,0.322,14.464c0.525,26.166,1.346,51.603,2.295,71.171
		c0.449,9.271,1.109,21.093,1.19,21.345c0.05,0.151,1.495,0.263,4.439,0.343c9.272,0.253,53.499,1.887,54.866,2.026
		c0.605,0.062,4.07,0.199,7.7,0.306s8.535,0.289,10.9,0.406c6.78,0.334,21.699,1.021,26.2,1.205
		c2.255,0.093,5.585,0.264,7.399,0.381c1.815,0.118,5.146,0.306,7.4,0.418c2.255,0.113,5.314,0.292,6.8,0.398s4.275,0.293,6.2,0.416
		c10.854,0.689,16.826,1.148,23.2,1.787c10.229,1.023,14.901,1.63,16.899,2.193c0.33,0.092,0.96,0.227,1.4,0.297
		c0.439,0.071,1.515,0.363,2.388,0.648c3.716,1.217,4.069,2.014,2.212,4.976c-1.402,2.235-1.419,2.666-0.2,5.14
		c1.05,2.129,1.137,2.977,0.395,3.821c-2.957,3.364-23.05,4.256-68.395,3.035c-16.687-0.449-29.55-0.877-35.5-1.181
		c-1.154-0.06-4.755-0.202-8-0.317c-3.244-0.115-7.34-0.299-9.1-0.407c-1.76-0.109-5.63-0.287-8.6-0.396
		c-6.736-0.246-21.443-0.91-26.101-1.178c-1.925-0.111-5.705-0.297-8.399-0.412c-2.695-0.116-5.846-0.261-7-0.32l-2.101-0.109
		l0.5,0.427c0.275,0.235,0.95,0.854,1.5,1.378s6.3,5.719,12.777,11.547s11.977,10.777,12.222,10.997
		c2.278,2.054,6.086,5.495,7.461,6.745l1.696,1.541l1.243-1.057c3.366-2.858,8.271-5.754,12.4-7.322
		c0.66-0.25,1.354-0.533,1.544-0.629c0.188-0.096,0.684-0.26,1.1-0.364s1.566-0.411,2.557-0.683s3.061-0.692,4.601-0.936
		c2.478-0.391,3.328-0.431,7.399-0.345c4.065,0.086,4.972,0.169,7.8,0.715c3.439,0.663,4.046,0.813,6.2,1.539
		c3.36,1.132,6.812,2.776,8.48,4.042c1.969,1.493,2.62,2.354,2.62,3.463c0,0.833-0.245,1.262-1.597,2.799
		c-0.629,0.717-1.292,1.592-1.475,1.945c-0.45,0.873-0.851,4.721-0.504,4.837c0.138,0.046,1.785,0.867,3.662,1.825
		c2.876,1.468,4.66,2.473,7.21,4.059c1.896,1.179,7.682,5.768,9.66,7.66c3.729,3.567,5.842,6.347,8.05,10.588
		c6.288,12.082,4.988,25.12-3.648,36.592c-0.638,0.848-1.159,1.617-1.159,1.713c0,0.095,1.596,1.699,3.545,3.565
		c7.314,7.002,17.523,17.428,20.256,20.688c2.018,2.406,2.479,3.594,1.26,3.241c-1.168-0.337-7.074-4.007-8.96-5.566
		c-0.11-0.092-0.516-0.381-0.9-0.645s-1.33-0.945-2.1-1.515c-0.771-0.57-2.3-1.702-3.4-2.515c-1.1-0.813-4.908-3.716-8.463-6.449
		s-6.569-5.011-6.7-5.06c-0.13-0.05-0.552,0.186-0.937,0.522c-0.891,0.78-3.91,3.057-5.601,4.223
		c-5.554,3.83-14.304,7.738-23.399,10.45c-9.065,2.704-21.581,4.53-31.4,4.583c-3.571,0.019-4.804-0.046-5.972-0.313
		c-6.559-1.504-11.481-4.774-15.726-10.444c-4.297-5.741-6.649-11.807-8.077-20.82c-0.703-4.446-0.885-7.602-0.766-13.302
		c0.149-7.146,0.771-11.745,2.55-18.857c1.644-6.569,5.08-14.808,8.216-19.692l0.771-1.201l-0.848-0.785
		c-0.467-0.431-1.703-1.464-2.748-2.295c-1.045-0.832-2.215-1.799-2.601-2.149c-0.385-0.351-1.194-1.024-1.8-1.498
		c-0.604-0.474-1.2-0.956-1.321-1.071c-0.706-0.668-18.762-15.51-18.809-15.46c-0.044,0.047,0.387,4.424,1.235,12.548
		c1.849,17.705,3.918,32.859,8.214,60.16c3.595,22.841,3.74,23.973,3.764,29.229c0.017,3.79-0.007,4.049-0.435,4.85
		c-0.535,1.003-1.215,1.256-2.735,1.016c-2.675-0.423-3.604-0.423-4.424-0.001c-0.434,0.225-0.969,0.575-1.189,0.781
		c-0.814,0.761-2.219,1.634-2.829,1.758c-0.79,0.161-1.954-0.305-2.617-1.047c-4.596-5.143-10.556-25.271-15.339-51.801
		c-3.804-21.095-6.867-47.528-8.434-72.772l-0.342-5.506l-0.586-0.627c-0.436-0.466-0.826-0.658-1.52-0.75
		c-1.058-0.141-15.524-1.01-22.034-1.325c-5.112-0.247-16.567-0.899-21.2-1.207c-1.814-0.12-13.604-0.856-26.199-1.635
		c-26.783-1.655-27.797-1.721-49.195-3.146c-6.762-0.45-12.31-0.819-12.329-0.819c-0.035,0-0.08,1.035-0.584,13.414
		c-0.371,9.105-1.042,21.864-2.19,41.642c-2.101,36.177-2.493,45.442-3.005,71.071c-0.164,8.203-0.391,16.041-0.504,17.417
		C179.31,452.453,178.662,453.474,177.515,451.2z M407.003,420.252c4.445-0.479,5.497-0.639,9.8-1.492
		c2.245-0.445,5.145-1.135,5.9-1.404c0.274-0.098,1.31-0.419,2.3-0.713c0.99-0.293,1.98-0.615,2.2-0.715s0.85-0.326,1.399-0.505
		c2.583-0.839,9.2-4.041,9.2-4.452c0-0.107-2.43-2.115-5.399-4.461c-4.592-3.626-6.219-4.934-9.4-7.551
		c-0.57-0.47-5.469-4.379-6.28-5.012c-0.374-0.292-0.823-0.672-1-0.846c-0.176-0.173-1.67-1.387-3.319-2.695
		c-1.65-1.311-3.045-2.436-3.101-2.5c-0.055-0.064-1-0.828-2.1-1.699c-1.101-0.87-2.226-1.793-2.5-2.05
		c-0.275-0.257-0.995-0.843-1.601-1.303c-0.604-0.459-1.64-1.29-2.3-1.847s-1.649-1.371-2.2-1.809
		c-0.55-0.439-1.18-0.949-1.399-1.135c-1.325-1.119-6.354-5.169-6.418-5.169c-0.043,0-0.484,0.81-0.98,1.798
		c-2.892,5.764-4.783,12.425-5.743,20.225c-0.372,3.021-0.312,10.133,0.111,13.113c0.637,4.479,1.55,7.49,3.067,10.109
		c0.702,1.211,1.938,2.503,2.562,2.677c0.22,0.062,3.146,0.07,6.5,0.021C400.904,420.769,403.533,420.625,407.003,420.252z
		 M446.51,403.977c2.932-3.315,4.68-7.221,5.087-11.365c0.256-2.609-0.511-6.405-1.933-9.569c-0.821-1.829-2.537-4.675-3.537-5.866
		c-0.288-0.344-0.884-1.064-1.322-1.602c-1.98-2.424-6.155-6.447-9.479-9.141c-1.602-1.297-8.379-5.984-10.622-7.346
		c-1.485-0.902-2.944-1.812-3.242-2.024c-0.476-0.337-0.905-0.384-3.508-0.384c-6.244,0-11.144,1.151-15.571,3.66
		c-1.543,0.873-3.005,1.941-2.879,2.102c0.055,0.07,3.925,3.643,8.6,7.938c4.676,4.297,11.956,11.012,16.181,14.924
		c4.224,3.912,8.273,7.651,9,8.31c0.726,0.659,2.31,2.146,3.52,3.307c4.366,4.187,8.521,7.993,8.733,8.003
		C445.609,404.925,446.047,404.5,446.51,403.977z M289.192,288.65c-0.104-0.088-0.819-0.7-1.59-1.359
		c-0.77-0.658-2.165-1.82-3.1-2.58c-0.936-0.76-1.745-1.438-1.801-1.506c-0.116-0.146-3.265-2.794-6.399-5.383
		c-1.895-1.564-3.235-2.694-3.483-2.936c-0.119-0.115-2.646-2.222-5.617-4.68c-2.97-2.459-5.973-4.977-6.674-5.596
		c-0.7-0.619-1.577-1.342-1.949-1.607l-0.675-0.481l-1.541,0.942c-1.781,1.09-6.297,3.39-7.761,3.952
		c-0.55,0.212-1.225,0.484-1.5,0.606c-1.084,0.48-1.371,0.585-3.4,1.242c-4.932,1.6-9.424,2.329-14.354,2.329
		c-4.294,0-7.312-0.478-11.046-1.746c-10.941-3.718-18.484-12.958-20.311-24.881c-0.654-4.266-0.34-10.786,0.72-14.941
		c0.721-2.83,2.19-6.722,3.705-9.815c0.817-1.669,1.485-3.123,1.485-3.23c0-0.107-0.202-0.329-0.45-0.493
		c-0.247-0.164-0.675-0.517-0.949-0.785c-0.275-0.268-1.625-1.424-3-2.568c-2.934-2.441-7.656-6.447-7.801-6.615
		c-0.055-0.065-1.201-1.032-2.548-2.15s-2.772-2.328-3.168-2.689s-0.86-0.737-1.033-0.835c-0.344-0.194-0.354-1.604,0.153,18.897
		c0.436,17.571,0.61,28.833,0.732,47.297l0.128,19.369l4.218,0.005c2.32,0.002,11.508,0.184,20.418,0.404
		c8.91,0.219,20.295,0.482,25.3,0.585c5.005,0.102,12.34,0.283,16.3,0.404C281.243,288.69,289.46,288.877,289.192,288.65z
		 M317.759,282.355c-0.241-9.676-0.168-50.802,0.108-60.611c0.397-14.075,0.976-30.128,1.414-39.239
		c0.082-1.707,0.094-3.17,0.025-3.253c-0.117-0.143-35.61,0.39-35.757,0.537c-0.038,0.038,0.679,0.913,1.594,1.943
		c5.039,5.679,10.462,13.413,13.131,18.729c3.879,7.726,4.842,15.738,2.707,22.519c-1.73,5.496-5.704,11.286-11.379,16.58
		c-0.88,0.821-1.645,1.54-1.7,1.599c-0.055,0.059-0.505,0.434-1,0.834s-1.125,0.924-1.399,1.164
		c-0.275,0.238-0.708,0.613-0.962,0.832c-0.564,0.484-7.979,6.166-8.595,6.586c-0.432,0.293-0.366,0.366,2.907,3.24
		c1.842,1.617,3.664,3.229,4.049,3.58c1.297,1.183,4.093,3.686,5,4.475c0.839,0.729,3.124,2.785,5.491,4.938
		c0.555,0.506,1.316,1.182,1.691,1.502s0.918,0.809,1.206,1.084c0.287,0.275,1.285,1.166,2.218,1.98
		c0.932,0.814,2.189,1.941,2.794,2.504c0.605,0.564,1.46,1.327,1.9,1.696c0.439,0.369,1.295,1.138,1.899,1.708
		c0.605,0.57,2.226,2.02,3.601,3.22s2.644,2.323,2.82,2.494c0.578,0.561,2.051,1.889,3.677,3.314
		c0.878,0.771,1.762,1.604,1.964,1.852c0.202,0.247,0.454,0.45,0.56,0.45C317.844,288.611,317.858,286.32,317.759,282.355z
		 M234.102,250.166c2.297-0.242,7-1.451,7-1.8c0-0.132-0.289-0.391-2.003-1.794c-0.604-0.494-1.142-0.948-1.197-1.01
		c-0.055-0.062-0.91-0.779-1.899-1.596c-0.99-0.816-1.846-1.538-1.9-1.604c-0.548-0.659-11.697-9.787-11.809-9.667
		c-0.329,0.354-1.213,3.201-1.493,4.809c-0.762,4.373,0.122,8.142,2.402,10.246c1.024,0.945,3.542,2.215,4.437,2.236
		c0.31,0.008,0.743,0.092,0.963,0.187C229.153,250.41,231.819,250.406,234.102,250.166z M264.747,236.347
		c3.517-1.993,5.256-3.075,9.862-6.13c7.493-4.97,11.83-9.252,13.244-13.078c0.586-1.585,0.914-4.057,0.759-5.703
		c-0.552-5.817-2.466-10.852-9.927-26.106l-2.683-5.483l-9.6,0.138c-17.866,0.256-45.546,0.51-56.201,0.516
		c-11.341,0.005-14.173,0.108-13.645,0.495c0.171,0.125,0.8,0.674,1.396,1.219c1.302,1.188,2.003,1.808,3.846,3.394
		c0.768,0.661,1.532,1.348,1.699,1.526s3.567,3.184,7.558,6.678c7.576,6.636,7.344,6.471,8.046,5.7
		c0.143-0.156,4.416-3.253,4.821-3.494c0.186-0.11,1.809-1.13,3.608-2.267c4.811-3.039,10.035-5.471,14.87-6.921
		c0.99-0.297,2.07-0.621,2.4-0.72c0.742-0.223,3.624-0.795,5.1-1.015c0.605-0.09,1.641-0.261,2.3-0.381
		c0.66-0.12,3.45-0.305,6.2-0.411c10.761-0.416,19.277,1.003,20.625,3.435c0.402,0.727,0.319,2.118-0.228,3.833
		c-0.624,1.958-0.622,2.534,0.024,4.908c0.376,1.381,0.496,2.225,0.431,3.021c-0.084,1.005-0.172,1.177-0.99,1.917
		c-1.477,1.339-4.036,2.188-9.462,3.14c-1.32,0.231-2.805,0.492-3.3,0.579c-0.495,0.087-2.115,0.347-3.601,0.579
		c-1.484,0.231-2.97,0.502-3.3,0.604c-0.33,0.1-1.005,0.242-1.5,0.314c-1.751,0.256-5.33,1.28-8.389,2.399
		c-2.654,0.972-8.95,4.534-11.733,6.638l-0.57,0.432l0.496,0.474c0.273,0.261,1.171,1.058,1.996,1.77
		c0.825,0.713,1.545,1.342,1.601,1.398c0.055,0.056,0.819,0.729,1.699,1.496c0.881,0.767,2.099,1.847,2.707,2.401
		c1.781,1.621,2.798,2.525,4.394,3.91c0.825,0.715,1.545,1.346,1.6,1.401c0.107,0.108,1.186,1.075,3.682,3.304
		c4.786,4.273,6.637,5.878,6.79,5.891C261.469,238.154,262.986,237.345,264.747,236.347z M90.424,131.854
		c3.458-0.269,7.117-0.817,8.679-1.3c0.495-0.153,1.305-0.383,1.799-0.511l0.899-0.232l-0.799-0.692
		c-0.439-0.38-1.564-1.337-2.499-2.125c-0.936-0.789-2.061-1.765-2.5-2.168c-0.757-0.694-1.732-1.501-5-4.134
		c-0.771-0.621-1.445-1.178-1.5-1.239c-0.056-0.061-0.91-0.781-1.9-1.599s-5.92-5.593-10.955-10.61
		c-7.235-7.209-9.195-9.06-9.344-8.822c-0.438,0.699-2.024,5.906-2.532,8.309c-0.509,2.4-0.552,2.959-0.558,7.207
		c-0.007,4.989,0.193,6.349,1.407,9.55c0.889,2.342,2.853,4.977,4.581,6.144c1.475,0.997,4.216,1.978,6.101,2.185
		C78.655,132.073,87.303,132.097,90.424,131.854z M109.596,103.838c-1.985-5.709-5.578-12.8-10.924-21.558l-1.971-3.228l-1.8,0.075
		c-4.63,0.193-5.422,0.266-7.2,0.667c-1.045,0.235-2.056,0.514-2.247,0.619c-0.19,0.104-0.433,0.19-0.537,0.19
		c-0.104,0-0.438,0.095-0.741,0.21c-0.548,0.208-0.484,0.279,7.236,8.026c4.284,4.299,8.473,8.416,9.308,9.149
		c2.271,1.994,3.691,3.2,4.975,4.22c2.498,1.986,4.11,3.327,4.174,3.47c0.037,0.083,0.146,0.15,0.243,0.15
		C110.21,105.829,109.977,104.933,109.596,103.838z M215.202,433.452c-0.989-0.141-2.385-0.397-3.1-0.57
		c-1.61-0.389-5.028-1.661-6.1-2.27c-0.44-0.25-1.025-0.564-1.301-0.698c-1.304-0.637-4.559-3.318-7-5.768
		c-8.077-8.104-12.204-17.846-12.198-28.789c0.007-10.939,3.893-21.479,11.679-31.671c1.629-2.132,2.467-3.085,5.52-6.274
		c7.772-8.119,19.717-15.168,30.4-17.94c0.385-0.101,1.195-0.316,1.8-0.481c0.605-0.166,1.55-0.356,2.101-0.426
		c0.55-0.068,1.27-0.209,1.6-0.312c0.959-0.298,6.988-0.792,9.5-0.778c1.265,0.007,3.392,0.123,4.726,0.258l2.425,0.244
		l-0.985-1.574c-1.601-2.557-1.72-3.352-0.502-3.341c1.121,0.009,4.376,1.648,6.437,3.241c1.304,1.006,3.95,3.268,4.489,3.836
		c0.38,0.398,0.784,0.727,0.9,0.729c0.308,0.006,2.794,1.178,4.411,2.08c2.257,1.259,4.505,2.973,6.106,4.655
		c2.512,2.64,2.749,3.863,1.073,5.541l-0.91,0.911l0.528,0.861c0.29,0.475,0.804,1.312,1.143,1.863
		c1.19,1.939,3.517,6.635,4.512,9.109c2.711,6.741,3.729,11.793,3.733,18.519c0.003,4.095-0.228,5.876-1.189,9.209
		c-1.95,6.755-5.664,12.127-11.896,17.21c-0.935,0.763-2.104,1.719-2.6,2.124c-2.473,2.025-9.146,6.427-13.5,8.906
		c-3.391,1.929-10.557,5.363-14.4,6.9c-2.444,0.978-7.212,2.58-9,3.025c-3.328,0.83-4.094,0.979-7.571,1.47
		C222.028,433.817,218.258,433.887,215.202,433.452z M227.102,412.455c3.574-0.541,10.728-2.577,14.1-4.014
		c0.44-0.188,1.205-0.479,1.7-0.647s1.261-0.468,1.7-0.665c0.44-0.197,1.385-0.601,2.1-0.897c1.381-0.573,7.157-3.399,8.5-4.159
		c2.609-1.477,3.403-1.944,5.301-3.126c1.154-0.72,2.189-1.382,2.3-1.471c0.11-0.09,0.965-0.737,1.899-1.438
		c2.725-2.044,4.334-3.996,5.602-6.795c2.704-5.971,2.285-15.059-1.145-24.85c-0.881-2.515-0.413-2.202-4.356-2.906
		c-1.32-0.236-3.21-0.595-4.2-0.798c-3.289-0.675-5.866-0.868-9.94-0.746c-2.419,0.072-4.382,0.235-5.26,0.437
		c-0.77,0.176-1.895,0.412-2.5,0.525c-1.222,0.228-1.393,0.276-4.443,1.273c-2.938,0.959-5.432,2.066-8.057,3.577
		c-1.599,0.921-5.763,3.633-6.145,4.003c-0.141,0.137-0.795,0.668-1.455,1.182c-1.449,1.129-3.784,3.363-5.472,5.236
		c-4.503,5.002-7.729,11.085-8.745,16.492c-0.444,2.361-0.3,6.558,0.293,8.557c0.914,3.076,2.79,6.086,5.596,8.974
		c1.76,1.812,2.618,2.218,5.528,2.622C221.041,412.965,225.124,412.754,227.102,412.455z M35.51,399.135
		c-0.301-0.562-0.254-2.074,0.107-3.487c0.66-2.578,2.904-6.505,6.018-10.529c1.643-2.124,5.631-6.376,8.178-8.719
		c1.196-1.101,2.358-2.187,2.583-2.413c0.224-0.227,1.442-1.269,2.707-2.316s2.436-2.038,2.6-2.2
		c0.748-0.735,11.826-9.147,12.734-9.669c0.02-0.012-0.502-0.605-1.157-1.32c-3.692-4.029-7.249-9.096-9.372-13.352
		c-1.677-3.361-2.652-6.131-3.33-9.459c-0.438-2.151-0.498-2.875-0.418-5.017c0.117-3.146,0.462-4.304,1.646-5.54l0.884-0.923
		l3.057,0.158c3.69,0.191,2.992,0.19,6.857,0.008c3.007-0.143,3.27-0.125,4.353,0.285c1.609,0.61,2.917,2.007,4.848,5.179
		c2.169,3.562,5.097,8.02,6.469,9.842c1.842,2.449,6.075,7.408,6.323,7.408c0.042,0,0.871-0.461,1.842-1.022
		c0.972-0.562,2.801-1.571,4.066-2.243c1.265-0.672,2.66-1.424,3.1-1.671c1.192-0.669,11.202-5.675,11.35-5.675
		c0.113,0,1.755-0.742,4.65-2.102c2.374-1.115,13.453-5.482,15-5.913c0.33-0.093,1.876-0.569,3.437-1.062
		c1.56-0.491,3.225-0.959,3.7-1.037c0.475-0.078,1.007-0.219,1.184-0.311c0.355-0.188,4.69-0.992,8.08-1.502
		c3.631-0.545,8.013-0.123,9.934,0.958c1.512,0.851,1.87,1.926,1.442,4.331c-0.386,2.17-0.386,3.99,0.001,6.484
		c0.564,3.641-0.082,5.342-2.675,7.037c-1.854,1.213-3.162,1.809-8.807,4.018c-2.143,0.838-4.166,1.646-4.496,1.796
		s-1.995,0.779-3.7,1.399c-1.704,0.619-3.279,1.205-3.5,1.299c-0.22,0.096-0.984,0.398-1.699,0.676
		c-0.715,0.275-3.73,1.467-6.7,2.648c-4.938,1.962-6.479,2.592-7.601,3.107c-0.22,0.101-0.895,0.371-1.5,0.602
		c-2.513,0.955-10.606,4.473-10.556,4.588c0.031,0.068,1.946,1.871,4.256,4.008c2.311,2.137,6.588,6.277,9.507,9.202
		c6.247,6.262,7.587,7.708,10.111,10.924c4.336,5.521,6.286,9.873,5.151,11.495c-0.314,0.449-0.408,0.467-1.95,0.352
		c-1.72-0.129-2.467-0.371-6.119-1.982c-2.279-1.005-13.478-6.63-13.94-7.002c-0.133-0.106-0.538-0.35-0.9-0.541
		c-1.724-0.91-9.282-5.125-9.459-5.275c-0.11-0.093-1.664-1.043-3.453-2.111c-2.931-1.749-9.597-5.973-9.847-6.24
		c-0.118-0.125-0.935-0.705-3.031-2.152c-0.842-0.581-1.664-1.057-1.827-1.057s-5.009,2.34-10.77,5.201
		c-8.896,4.418-11.783,5.903-17.531,9.021c-0.363,0.197-0.768,0.442-0.9,0.545c-0.133,0.104-0.735,0.443-1.341,0.758
		c-2.459,1.273-14.217,8.439-14.6,8.898c-0.158,0.189-2.021,1.26-2.872,1.648C36.603,399.639,35.772,399.627,35.51,399.135z
		 M110.127,278.986c-0.444-0.178-1.981-1.371-2.944-2.287c-2.491-2.366-4.879-4.45-6.78-5.918c-0.77-0.594-1.444-1.129-1.5-1.189
		c-0.21-0.23-1.854-1.472-3.443-2.6c-0.911-0.646-1.772-1.279-1.914-1.405c-0.31-0.275-16.018-10.608-16.126-10.608
		c-0.042,0-1.502-0.961-3.246-2.136c-1.743-1.175-3.71-2.498-4.37-2.941c-0.66-0.444-2.026-1.42-3.037-2.169
		c-1.01-0.75-1.895-1.363-1.965-1.363c-0.191,0-13.012,5.681-15.798,7c-1.32,0.625-2.715,1.265-3.101,1.422
		c-0.385,0.158-3.895,1.877-7.8,3.82c-5.939,2.955-9.194,4.725-16.551,8.996c-0.358,0.208-1.844,1.176-3.3,2.152
		c-3.073,2.057-4.47,2.836-5.086,2.836c-0.995,0-1.342-1.637-0.789-3.717c0.792-2.975,2.926-6.533,6.718-11.198
		c0.269-0.33,2.022-2.134,3.897-4.007c3.648-3.644,7.067-6.591,12.422-10.708c1.938-1.489,8.912-6.39,11.677-8.204l2.587-1.697
		l-1.146-1.206c-3.682-3.869-8.24-10.886-10.147-15.619c-1.811-4.495-2.562-8.059-2.452-11.649c0.064-2.153,0.125-2.471,0.671-3.557
		c0.97-1.927,1.122-1.988,5.364-2.149c2.201-0.084,4.149-0.265,4.936-0.46c0.715-0.177,2.082-0.373,3.038-0.436
		c2.025-0.134,2.855,0.161,4.477,1.589c0.774,0.682,3.886,5.052,3.886,5.458c0,0.221,4.543,7.027,5.611,8.406
		c1.523,1.967,5.021,6.088,5.753,6.778l0.611,0.577l1.162-0.663c0.64-0.365,1.522-0.86,1.962-1.101c0.44-0.241,2.33-1.276,4.2-2.3
		s4.84-2.614,6.6-3.533c3.581-1.87,23.757-11.964,26.217-13.117c0.871-0.408,2.528-1.185,3.684-1.726
		c1.155-0.542,2.82-1.322,3.7-1.734c4.161-1.95,10.769-4.618,13-5.249c5.621-1.589,7.143-1.076,8.67,2.928
		c0.72,1.887,1.552,3.229,3.092,4.991c1.455,1.665,1.839,2.468,1.829,3.834c-0.017,2.625-2.738,5.593-9.241,10.076
		c-0.906,0.624-1.689,1.135-1.741,1.135c-0.053,0-0.796,0.437-1.652,0.971c-3.837,2.395-6.842,3.955-18.792,9.759
		c-4.24,2.059-24.8,11.213-26.019,11.583c-0.406,0.125,0.199,0.789,5.725,6.28c6.396,6.356,8.696,8.911,12.024,13.349
		c3.865,5.154,6.144,9.408,7.507,14.014c0.645,2.18,0.906,5.957,0.5,7.225C112.225,279.012,111.385,279.49,110.127,278.986z
		 M378.802,271.117c-5.107-0.817-8.986-2.748-12.3-6.123c-2.519-2.564-4.328-6.023-5.138-9.816
		c-0.553-2.596-0.489-7.669,0.129-10.21c1.678-6.897,5.272-14.116,10.127-20.338c1.997-2.561,2.204-2.789,5.882-6.489
		c3.778-3.802,4.085-4.074,7.803-6.932c1.895-1.456,6.619-4.679,6.859-4.679c0.054,0,0.692-0.362,1.42-0.804
		c1.658-1.009,6.563-3.397,8.418-4.1c2.975-1.126,4.747-1.667,8.924-2.722c1.934-0.488,6.199-1.013,9.076-1.117
		c5.205-0.188,9.445,0.334,14.653,1.804c3.767,1.063,8.236,3.618,10.151,5.804c1.812,2.067,1.683,3.226-0.641,5.751
		c-0.806,0.876-1.464,1.705-1.464,1.842c0,0.137,0.271,0.37,0.604,0.518c0.865,0.383,2.726,2.143,3.296,3.116
		c1.621,2.769,1.832,6.547,0.577,10.328c-1.393,4.194-4.714,9.693-8.457,14.003c-2.55,2.936-6.438,6.75-9.701,9.521
		c-0.649,0.55-1.279,1.094-1.4,1.207c-0.12,0.114-0.804,0.651-1.52,1.196c-1.498,1.141-1.504,1.145-2.3,1.807
		c-1.036,0.861-7.51,5.17-9.6,6.391c-1.101,0.643-2.315,1.365-2.7,1.607c-0.638,0.4-6.583,3.35-8.5,4.216
		c-1.242,0.562-5.445,2.076-7,2.522c-1.531,0.439-2.059,0.57-4.3,1.058c-0.825,0.18-1.95,0.425-2.5,0.546
		C387.68,271.355,380.694,271.42,378.802,271.117z M389.479,251.152c2.61-0.438,5.152-0.998,6.823-1.502
		c2.048-0.617,6.82-2.271,7.101-2.461c0.109-0.075,0.56-0.256,1-0.402c0.439-0.146,1.295-0.492,1.899-0.768
		c0.605-0.275,1.775-0.792,2.601-1.148c2.422-1.045,9.169-4.65,12.5-6.678c1.874-1.142,6.749-4.352,7.395-4.869
		c0.855-0.688,1.948-1.534,2.412-1.87c1.654-1.197,4.661-4.051,6.643-6.306c2.139-2.435,3.206-4.692,2.946-6.231l-0.138-0.817
		l-0.598,0.726c-1.166,1.416-1.225,1.424-8.962,1.351l-6.902-0.066l-3.548,0.624c-3.921,0.689-5.154,1.018-8.648,2.307
		c-2.1,0.774-6.739,3.107-9,4.525c-9.109,5.716-16.963,14.104-19.664,21.004c-0.918,2.345-0.941,2.561-0.286,2.659
		C384.243,251.411,388.227,251.362,389.479,251.152z M266.971,148.242c-4.921-0.696-16.022-6.019-25.369-12.165
		c-5.673-3.73-12.433-8.571-15.062-10.786l-1.062-0.895l-1.338,0.556c-2.627,1.091-13.793,6.49-16.539,7.998
		c-6.468,3.55-7.681,3.685-7.859,0.87c-0.273-4.288,3.519-10.59,10.578-17.581l2.729-2.703l-3.698-3.804
		c-3.711-3.818-8.226-9.043-11.107-12.855c-4.742-6.273-8.437-13.444-8.85-17.177c-0.31-2.788,0.563-3.895,4.241-5.373
		c1.745-0.702,3.009-1.386,4.556-2.467c2.445-1.709,3.297-2.068,4.903-2.068c2.182,0,4.551,1.647,7.916,5.505
		c1.432,1.642,10.171,12.445,11.597,14.336c0.217,0.287,1.104,1.368,1.973,2.402c0.868,1.034,1.902,2.28,2.3,2.769
		c1.307,1.611,4.232,5.017,4.309,5.017c0.041,0,1.186-0.716,2.544-1.593c5.517-3.558,17.625-10.677,22.509-13.233
		c1.299-0.68,3.216-1.688,4.261-2.242c11.525-6.105,15.99-7.723,18.456-6.686c0.928,0.391,2.105,1.766,3.293,3.845
		c0.57,0.997,1.646,2.52,2.394,3.383c2.98,3.45,3.263,3.927,3.248,5.489c-0.027,2.957-2.909,6.277-9.091,10.473
		c-3.677,2.496-11.72,6.851-17.7,9.583c-1.375,0.628-3.4,1.566-4.5,2.084s-4.025,1.8-6.5,2.849s-4.57,1.972-4.657,2.052
		c-0.086,0.08,0.724,1.093,1.8,2.252c1.077,1.159,3.572,3.84,5.546,5.958c6.653,7.142,11.32,12.421,13.72,15.524
		c0.596,0.771,1.136,1.447,1.201,1.501c0.296,0.252,1.403,2.032,2.056,3.303c0.985,1.921,1.102,2.696,0.502,3.354
		C269.71,148.333,268.723,148.49,266.971,148.242z"/>
</g>
</svg>
